Motion_pl08
version=1
nRows=5
nColumns=43
inDegrees=yes
endheader
time	pelvis_tilt	pelvis_list	pelvis_rotation	pelvis_tx	pelvis_ty	pelvis_tz	hip_flexion_r	hip_adduction_r	hip_rotation_r	knee_angle_r	ankle_angle_r	subtalar_angle_r	mtp_angle_r	hip_flexion_l	hip_adduction_l	hip_rotation_l	knee_angle_l	ankle_angle_l	subtalar_angle_l	mtp_angle_l	lumbar_extension	lumbar_bending	lumbar_rotation	neck_flexion	neck_lateral_bending	neck_rotation	arm_flex_r	arm_add_r	arm_rot_r	elbow_flex_r	pro_sup_r	wrist_flex_r	wrist_dev_r	hand_finger_flex_r	arm_flex_l	arm_add_l	arm_rot_l	elbow_flex_l	pro_sup_l	wrist_flex_l	wrist_dev_l	hand_finger_flex_l
      0.99750000	     -3.10966094	     -7.05728402	     96.39675361	      0.00871079	      1.79399471	      1.90014006	     71.22809547	     -8.08487191	      9.39665569	   -131.20672256	     28.21096116	     -6.44413421	      2.40791251	     71.52773549	      1.57961608	      7.54457807	   -126.11736224	     30.47400468	    -15.43192492	     -3.97328135	    -55.60289067	      1.84879384	     -3.18035027	     28.81232102	     -0.60496590	     -2.94601916	     25.37901228	    -21.07019635	     -1.63231088	     58.56357969	     76.76344274	    -39.63733462	      6.67741018	     44.58350307	     26.95327344	    -15.12037963	    -12.97513867	     76.42934750	    111.12163428	    -11.52808316	     22.69526765	     82.72781575
      1.00000000	     -3.12457421	     -7.13969248	     96.40658748	      0.00874398	      1.79324078	      1.89965639	     71.32518404	     -8.08698241	      9.41400362	   -131.32646837	     28.21924148	     -6.46321479	      2.40319514	     71.63537949	      1.59093340	      7.54203013	   -126.23612345	     30.48010475	    -15.42212141	     -3.95437170	    -55.60151337	      1.83559899	     -3.16699364	     29.04253423	     -0.60697484	     -2.95237741	     26.06851602	    -21.11122602	     -1.40017139	     58.47239090	     76.66505185	    -39.68194467	      6.81307853	     44.54734500	     27.70064694	    -15.13073117	    -12.66563188	     76.35913985	    111.17506281	    -11.57932916	     22.75507133	     82.82762037
      1.00250000	     -3.14181532	     -7.21207203	     96.40768506	      0.00878140	      1.79246030	      1.89917115	     71.41668354	     -8.07274939	      9.45845846	   -131.44628431	     28.22078807	     -6.49681708	      2.39485744	     71.72577453	      1.61354122	      7.56969580	   -126.36502711	     30.48401809	    -15.40868453	     -3.93196660	    -55.59439128	      1.81150484	     -3.15226638	     29.18569959	     -0.59677878	     -2.98391674	     26.76601320	    -21.19428222	     -1.08077266	     58.38603417	     76.54437366	    -39.73036511	      7.00574752	     44.49495274	     28.45508785	    -15.17405691	    -12.29354435	     76.29188193	    111.23863867	    -11.63912545	     22.83529155	     82.94931463
      1.00500000	     -3.15720896	     -7.28435364	     96.40813711	      0.00883219	      1.79170142	      1.89868495	     71.49903652	     -8.04671550	      9.48742405	   -131.57156687	     28.21934306	     -6.52738597	      2.38673344	     71.81872662	      1.62957895	      7.58125631	   -126.48126455	     30.49532793	    -15.39321545	     -3.90890589	    -55.58996453	      1.79022086	     -3.13954275	     29.31364896	     -0.59396313	     -3.01808955	     27.46503311	    -21.27523632	     -0.77371310	     58.32668566	     76.43164746	    -39.77964963	      7.19443728	     44.43114618	     29.20503350	    -15.20524517	    -11.94716310	     76.24301509	    111.29595959	    -11.70658883	     22.91052887	     83.05926251
      1.00750000	     -3.16800441	     -7.35314824	     96.40408508	      0.00887185	      1.79093157	      1.89817000	     71.58167615	     -8.02749729	      9.51885856	   -131.69532733	     28.21426691	     -6.55758605	      2.37819144	     71.90432934	      1.63291362	      7.59609675	   -126.61145868	     30.51200976	    -15.37619499	     -3.88357931	    -55.58279091	      1.76862432	     -3.12436228	     29.44593650	     -0.59145383	     -3.05488154	     28.17442214	    -21.36185795	     -0.44771597	     58.26380599	     76.32258227	    -39.83410491	      7.39442568	     44.35442843	     29.95897430	    -15.23998841	    -11.58250003	     76.18738940	    111.35728258	    -11.78117773	     22.99197872	     83.16984913
